# xmcd CD database file
#
# Track frame offsets:
#	150
#	33455
#	64144
#	96111
#	129169
#	156823
#	187702
#	218009
#
# Disc length: 3359 seconds
#
# Revision: 0
# Processed by: cddbd v1.5.2PL0 Copyright (c) Steve Scherf et al.
# Submitted via: CDex 1.51
#
DISCID=5f0d1d08
DTITLE=Dan Gibson - Solitudes - Nurturing Rain
DYEAR=2001
DGENRE=New Age
TTITLE0=Splendor
TTITLE1=Whispers of Rain
TTITLE2=Silver Days
TTITLE3=Refuge from the Storm
TTITLE4=Translucence
TTITLE5=Natural Grace
TTITLE6=Renewal
TTITLE7=Illumination
EXTD=YEAR: 2001
EXTT0=
EXTT1=
EXTT2=
EXTT3=
EXTT4=
EXTT5=
EXTT6=
EXTT7=
PLAYORDER=
